<?xml version="1.0" encoding="utf-8"?>
<!-- Generator: Adobe Illustrator 24.1.2, SVG Export Plug-In . SVG Version: 6.00 Build 0)  -->
<svg version="1.1" id="Design" xmlns="http://www.w3.org/2000/svg" xmlns:xlink="http://www.w3.org/1999/xlink" x="0px" y="0px"
	 viewBox="0 0 995.73 612.26" style="enable-background:new 0 0 995.73 612.26;" xml:space="preserve">
<style type="text/css">
	.st0{stroke:#000000;stroke-width:4;stroke-linejoin:round;stroke-miterlimit:10;}
</style>
<g>
	<g>
		<path d="M779.17,168.86c-0.07-1-2.13-30.01-2.2-31.01c-0.27-6.15,0.05-12.37-1.72-18.33c-1.03-2.99-2.81-5.63-4.48-8.29
			c-0.27-0.46-0.55-0.92-0.84-1.38c-0.13-0.21-0.25-0.42-0.38-0.63c-2.28-3.89-5.41-6.97-8.97-9.55c-1.07-0.9-2.15-1.77-3.23-2.61
			c-2.73-2.15-5.99-3.37-9.1-4.84c-0.34,0.04-0.68,0.06-1.03,0.08c-1.15-0.52-2.31-1.03-3.44-1.53c-4.64-2.4-9.99-2.16-15.06-2.19
			c-0.23,0-0.46,0-0.7,0c-0.14-0.07-0.28-0.13-0.42-0.2c-0.67,0.1-1.35,0.16-2,0.21c-14.95,0.08-29.92,0.05-44.87,0.44
			c-8.31,0.97-16.69,0.6-25.03,0.76c-1.42,0.03-2.84,0-4.27-0.08c-0.4-0.17-0.8-0.34-1.19-0.53c-1.41,0.02-2.93-0.29-4.21-0.4
			c-2.2-0.57-4.37-1.27-6.5-2.08c-3.62-1.65-7.28-3.27-10.64-5.38c-1.04-0.68-2.07-1.39-3.05-2.15c-0.11-0.08-0.22-0.15-0.32-0.22
			c-4.19-3.26-8.63-6.17-12.92-9.29c-4.72-4.32-9.12-9-13.89-13.27c-2.67-2.57-6.98-2.41-9.65-4.81c-0.27-0.25-0.51-0.53-0.74-0.84
			c-0.53-4.86,0.19-9.83-1.14-14.61c-0.45-2.67-1.42-5.15-2.52-7.58c-0.21-0.65-0.41-1.29-0.61-1.94c-0.36-0.61-0.73-1.21-1.12-1.8
			c-0.37-0.79-0.73-1.58-1.06-2.38c-1.87-4.51-6.39-6.96-9.26-10.74c-3.06-3.96-8.1-5.35-12.74-6.43
			c-5.52-1.27-10.92-3.34-16.67-3.19c-24.58-0.13-49.16-0.11-73.75,0.05c-7.21,0.1-14.3,1.82-21.21,3.76
			c-0.78,0.47-1.55,0.96-2.31,1.46c-2.99,1.02-5.8,2.5-7.78,5.05c-2.88,3.78-7.42,6.23-9.3,10.74c-0.16,0.37-0.32,0.74-0.49,1.1
			c-0.35,0.54-0.69,1.09-1.02,1.66c-0.17,0.56-0.35,1.12-0.53,1.68c-1.4,2.98-2.75,5.97-3.31,9.26c-1.27,4.57-0.68,9.31-1.09,13.96
			c-2.12,2.08-5.41,2.61-7.95,4.09c-2.62,1.25-4.44,3.43-6.24,5.63c-2.18,2.08-4.32,4.21-6.49,6.31
			c-5.33,4.13-11.07,7.71-16.35,11.92c-4.49,3.45-9.77,5.59-14.86,7.96c-4.11,1.84-8.63,2.37-13.11,2.38c-0.34-0.26-0.65-0.58-0.9-1
			c-1.73-4.28-1.82-9.04-3.51-13.34c-3.54-8.35-10.94-14.51-19.07-18.14c-5.47-2.57-11.6-1.77-17.42-2.47
			c-5.93-0.43-11.89-0.35-17.83-0.37c-5.5-0.12-10.56,2.38-15.41,4.66c-6.02,3.5-10.46,9.13-14.29,14.82
			c-3.53,5.26-1.21,12-3.38,17.57c-4.08,2.7-9.08,3.88-12.99,6.94c-7.75,5.94-15.49,13.5-16.82,23.67
			c-3.2,8.32-2.48,17.35-3.64,26.02c-3.46,4.76-9.76,5.99-13.93,9.98c-0.04,0.04-0.09,0.07-0.13,0.11
			c-2.47,1.72-4.82,3.58-6.96,5.69c-3.01,2.39-5.9,4.9-8.06,8.14c-2.7,4-5.83,7.74-7.92,12.12c-0.39,0.77-0.72,1.57-1.03,2.37
			c1.83-1.53,3.8-2.93,5.9-4.22c5.35-9.8,15.21-17.2,26.14-19.63c4.7-4.51,10.51-7.9,16.74-9.68c6-3.78,12.96-6.01,20.04-6.01
			c2.51,0,4.94,0.25,7.28,0.71c0.33-2.26,0.9-4.47,1.69-6.59c-6.28-0.05-12.59,0.89-18.65,2.5c-1.77,0.36-3.57-0.06-5.37-0.22
			c-0.16-3.18,0.17-6.35,0.47-9.51c0.19-2.02,0.15-4.08,0.23-6.13c0.31-2.36,0.71-4.7,1.48-6.97c0.35-0.82,0.73-1.64,1.14-2.44
			c1.89-3.32,4.49-6.18,7.37-8.7c3.9-2.64,8.24-4.65,12.67-6.17c9.34-2.1,18.98-1.26,28.47-1.38c7.36-0.23,14.67,0.88,22.03,0.77
			c0.44-0.01,0.89,0,1.33,0.01c1.51,0.1,3.02,0.16,4.54,0.2c3.69,0.27,7.38,0.71,11.09,0.72c8.79-0.12,17.72,0.77,26.33-1.55
			c8.83-1.07,16.21-6.36,24-10.21c4.3-2.19,7.71-5.71,11.93-8.05c3.96-2.24,7.44-5.23,10.46-8.63c2.85-2.79,5.01-6.48,8.79-8.16
			c2.77-0.67,5.67-0.39,8.5-0.44c11.66,0.2,23.35-0.31,34.97,0.82c24.69,0.32,49.39,0.2,74.08,0.03
			c14.95-1.25,29.97-0.51,44.96-0.82c3.27,0.21,6.89-0.61,9.9,1.03c0.19,0.13,0.36,0.27,0.54,0.4c2.25,1.87,3.96,4.39,6.04,6.43
			c1.67,1.88,3.48,3.63,5.43,5.21c1.83,1.83,3.82,3.49,6.15,4.74c2.66,1.67,5.31,3.39,7.96,5.08c0.45,0.3,0.9,0.59,1.37,0.87
			c5.99,3.79,12.08,7.43,18.65,10.16c7.72,2.4,15.85,3.63,23.95,3.23c10.39-0.34,20.83,0.43,31.18-0.8
			c10.67-0.84,21.4-0.01,32.06-0.96c6.21-0.43,12.44,0.62,18.27,2.77c3.75,1.71,7.33,3.83,10.48,6.5c2.19,2.54,3.85,5.56,5.17,8.64
			c1.97,5.8,1.52,12.09,3.25,17.95c0.55,1.74,0.65,3.58,0.74,5.39c-0.5,0.08,1.72,31.89,1.51,33.6
			C766.31,176.71,779.37,171.07,779.17,168.86z M344.78,89.02c-4.57-0.03-9.13-0.16-13.67-0.69c-15.92-0.42-31.85-0.35-47.77-0.46
			c-1.3,0.01-2.62,0-3.94,0.02c-0.55-0.48-0.96-1.13-1.11-2.03c-1.1-8.57,5.85-15.76,12.86-19.47c7.76-1.45,15.75-0.4,23.61-0.65
			c5.48,0.21,11.17-0.92,16.48,0.85c7.93,3.19,13.04,11.28,14.28,19.5C345.7,87.19,345.39,88.21,344.78,89.02z M575.13,52.29
			c-1.9,0.7-3.97,0.65-5.98,0.74c-11.3,0.23-22.6-0.27-33.91-0.37c-27.55-0.51-55.1,0.04-82.65,0.3
			c-5.74-0.18-11.54,0.58-17.23-0.31c-1.52-1.92-0.85-4.55-0.64-6.8c0.59-4.99,0.4-10.21,1.98-15.01c1.56-3.01,3.63-5.75,6.05-8.13
			c3.49-3.06,7.71-5.33,12.08-6.85c6.31-2.78,13.3-1.33,19.94-1.29c10.32,0.11,20.65,0.04,30.97,0.16
			c15.3,0.19,30.62-0.78,45.92-0.24c9.45,1.73,18.02,7.97,22.68,16.38c1.33,4.59,1.19,9.53,1.74,14.26
			C576.29,47.53,577.03,50.35,575.13,52.29z"/>
	</g>
	<path d="M540.82,21.76c-20.78-0.73-41.61-1.24-62.41-0.17c-5.28,0.23-10.98,0.06-15.71,2.78c-2.47,3.73-4.2,8.24-3.81,12.8
		c0.14,2.7,0.77,5.84,3.18,7.42c3.75,1.33,7.82,0.92,11.71,1.13c13.51,0.06,27,1.48,40.51,0.74c4.67-0.16,9.34-0.04,13.99-0.34
		c6.39-0.38,12.9,0.68,19.21-0.78c2.72-0.62,3.43-3.69,3.35-6.09c-0.06-4.27,0.62-9.01-1.88-12.76
		C547.24,23.66,544.01,22.14,540.82,21.76z"/>
</g>
<g>
	<path d="M505.37,207.96c45.57,0,82.64,37.07,82.64,82.64s-37.07,82.64-82.64,82.64s-82.64-37.07-82.64-82.64
		S459.8,207.96,505.37,207.96 M505.37,193.96c-53.37,0-96.64,43.27-96.64,96.64s43.27,96.64,96.64,96.64s96.64-43.27,96.64-96.64
		S558.74,193.96,505.37,193.96L505.37,193.96z"/>
</g>
<g>
	<path d="M2.74,350.75c9.98-4.85,20.39-8.91,31.23-12.19c10.83-3.27,21.67-6.2,32.51-8.77l10.69-16.68
		c9.41-13.4,18.96-26.38,28.66-38.93c9.69-12.55,19.82-25.09,30.37-37.64c10.27-11.98,20.89-23.74,31.87-35.29
		c10.98-11.55,22.6-22.31,34.86-32.3c5.99-4.85,12.12-9.41,18.39-13.69c6.27-4.28,12.69-8.13,19.25-11.55
		c1.71-0.86,4.49-2.14,8.34-3.85c3.85-1.71,7.77-3.06,11.76-4.06c3.99-1,7.7-1.35,11.12-1.07c3.42,0.29,5.7,2,6.84,5.13
		c0.57,2,0.35,4.06-0.64,6.2c-1,2.14-1.78,4.06-2.35,5.77l-9.84,20.11l-8.13,16.68c-5.71,11.12-11.2,22.24-16.47,33.37
		c-5.28,11.12-10.48,22.53-15.61,34.22c-4.57,10.27-8.98,20.53-13.26,30.8c-4.28,10.27-8.27,20.82-11.98,31.66
		c2.28,0,4.49,0.15,6.63,0.43c2.14,0.29,4.06,0.71,5.77,1.28c3.42,1.43,5.06,3.92,4.92,7.49c-0.15,3.57-1.92,5.92-5.35,7.06
		c-2.57,0.58-5.28,0.72-8.13,0.43c-2.85-0.28-5.85-0.71-8.98-1.28l-1.71,8.98c-1.71,5.99-3.36,12.34-4.92,19.04
		c-1.57,6.7-2.85,13.4-3.85,20.11c-1,6.7-1.64,13.33-1.93,19.89c-0.29,6.56,0.14,12.83,1.28,18.82c7.98-7.99,15.54-15.69,22.67-23.1
		c7.13-7.42,14.97-14.4,23.53-20.96c12.83-9.99,26.02-19.25,39.57-27.81c13.54-8.56,27.44-16.68,41.71-24.38
		c1.42-0.86,2.71-1.07,3.85-0.64c1.14,0.43,2.06,1.22,2.78,2.35c0.71,1.14,1,2.35,0.86,3.64c-0.15,1.28-0.93,2.35-2.35,3.21
		l-17.54,9.41c-7.42,4.28-14.76,8.63-22.03,13.05c-7.27,4.42-14.33,9.2-21.17,14.33c-21.96,15.97-41.78,34.79-59.46,56.47
		c-1.43,2.28-2.93,4.28-4.49,5.99c-1.57,1.71-3.92,2.85-7.06,3.42c-4,0.57-7.13,0-9.41-1.71c-2.29-1.71-4.06-4-5.35-6.84
		c-1.28-2.85-2.07-5.99-2.35-9.41c-0.29-3.42-0.29-6.56,0-9.41c0.28-12.55,2.14-25.24,5.56-38.07c3.42-12.83,7.13-25.24,11.12-37.22
		c-4.85-0.28-9.7-0.49-14.54-0.64c-4.85-0.14-9.7-0.21-14.54-0.21c-10.27-0.57-20.53-0.57-30.8,0c-10.27,0.57-20.39,1.57-30.37,2.99
		l-19.68,2.99l-5.99,11.12c-3.42,6.56-6.99,13.4-10.69,20.53c-3.71,7.13-5.99,14.4-6.84,21.82c-0.29,2.28-0.79,4.56-1.5,6.84
		c-0.72,2.28-2.64,3.56-5.77,3.85c-2.57,0-4.64-0.86-6.2-2.57c-1.57-1.71-2.21-3.71-1.93-5.99c0.28-7.13,2.21-14.12,5.77-20.96
		c3.56-6.84,6.91-13.26,10.05-19.25c1.14-2.28,2.28-4.28,3.42-5.99c1.14-1.71,2.42-3.7,3.85-5.99c-4,0.86-7.77,1.78-11.34,2.78
		c-3.57,1-7.35,2.21-11.34,3.64c-5.13,1.43-10.05,3.14-14.76,5.13c-4.71,2-9.48,4.14-14.33,6.42c-1.43,0.86-2.78,1-4.06,0.43
		c-1.28-0.57-2.14-1.42-2.57-2.57c-0.43-1.14-0.5-2.35-0.21-3.64C0.45,352.67,1.31,351.6,2.74,350.75z M190.1,317.81
		c7.41-19.68,15.19-38.93,23.31-57.75s16.32-37.78,24.6-56.89c3.99-8.56,7.84-17.18,11.55-25.88c3.7-8.7,7.27-17.61,10.69-26.74
		c-6.56,1.14-13.12,3.36-19.68,6.63c-6.56,3.28-12.83,7.06-18.82,11.34s-11.62,8.7-16.9,13.26c-5.28,4.57-10.2,8.84-14.76,12.83
		c-23.96,21.96-46.2,46.2-66.73,72.72c-14.09,18.79-27.9,38.35-41.49,59.03l35.5-5.13c10.55-0.86,21.1-1.5,31.66-1.92
		c10.55-0.43,21.24-0.35,32.08,0.21h8.56C189.67,318.67,189.81,318.1,190.1,317.81z"/>
	<path d="M727.58,201.47c12.98-10.92,26.95-20.16,41.92-27.75c14.96-7.58,30.03-14.44,45.2-20.57c3.92-1.78,7.92-3.4,12.01-4.87
		c4.08-1.46,8.09-2.76,12.05-3.89l9.33-13.05c4.88-6.36,10-12.34,15.34-17.92c5.34-5.58,11.2-10.76,17.57-15.57
		c1.67-1.04,4.03-2.6,7.09-4.67c3.05-2.07,6.27-3.82,9.64-5.26c3.37-1.43,6.61-2.21,9.75-2.34c3.13-0.13,5.6,0.92,7.4,3.12
		c2.38,2.51,2.93,5.57,1.65,9.2c-1.29,3.63-3.63,5.51-7.05,5.64c-9.99,0.08-19.4,3.72-28.25,10.93
		c-8.85,7.21-17.09,15.38-24.71,24.5c9.04-2.37,18.03-4.24,26.96-5.59c8.94-1.35,17.97-1.89,27.12-1.61
		c7.43,0.36,14.84,1.68,22.21,3.99c7.37,2.31,14.07,5.7,20.1,10.17c6.03,4.47,10.96,10.21,14.81,17.2c3.84,7,5.96,15.2,6.33,24.61
		c0.35,8.76-1.03,17.1-4.14,25.03c-3.11,7.92-7.17,15.32-12.17,22.18c-5.01,6.87-10.53,13.26-16.57,19.19
		c-6.04,5.93-11.83,11.12-17.36,15.56c-25.98,21.19-54.26,38.57-84.82,52.14c-30.57,13.58-61.54,24.23-92.91,31.99l-7.62,2.25
		l-4.33,9.44l-21.51,51.07c-1.33,2.65-2.69,6.03-4.09,10.16c-1.41,4.12-3.8,6.57-7.2,7.36c-3.13,0.44-5.6-0.83-7.43-3.85
		c-1.83-3.02-2.1-6.01-0.79-8.99c4.43-10.58,9.29-21.01,14.59-31.29c5.29-10.29,10.58-20.74,15.87-31.35
		c-4.24,1.14-8.48,2.04-12.74,2.7c-4.25,0.66-8.37,1.39-12.33,2.2c-2.84,0.43-5.82,0.8-8.95,1.09c-3.13,0.28-5.48-1.49-7.06-5.32
		c-1.25-2.55-1.07-5.24,0.53-8.06c1.6-2.82,3.69-4.12,6.27-3.91c6.85,0.05,13.83-0.31,20.93-1.08c7.1-0.77,14.06-1.78,20.86-3.03
		l8.72-17.41c8.44-17.23,16.82-34.38,25.13-51.46c8.31-17.07,16.97-34.07,26-51.01c5.85-10.63,11.85-21.27,17.99-31.92
		c6.14-10.64,12.71-21.14,19.72-31.5c-3.11,0.78-6.14,1.71-9.09,2.8c-2.95,1.09-5.83,2.35-8.63,3.76
		c-20.22,8.29-39.2,19.12-56.93,32.5c-1.39,1.03-3.04,2.64-4.94,4.83c-1.91,2.19-3.9,4.3-5.95,6.33c-2.06,2.03-4.2,3.82-6.42,5.38
		c-2.23,1.55-4.2,2.04-5.94,1.46c-3.46-0.84-5.55-3.11-6.27-6.82C723.78,206.42,724.8,203.53,727.58,201.47z M836.65,166.89
		c-10.25,15.03-19.76,30.45-28.55,46.23c-8.79,15.79-17.42,31.98-25.89,48.56c-6.61,13.27-13,26.52-19.17,39.76
		c-6.18,13.25-12.42,26.66-18.73,40.23c15.01-2.87,29.97-6.88,44.9-12.03c21.14-6.69,41.78-15.15,61.92-25.38
		c20.14-10.23,39.04-22.84,56.71-37.85c4.15-3.41,8.9-7.67,14.26-12.76c5.36-5.09,10.49-10.73,15.38-16.95
		c4.89-6.2,9.33-12.8,13.34-19.79c4-6.98,6.57-13.91,7.73-20.78c1.15-6.87,0.59-13.59-1.66-20.16c-2.26-6.57-7.07-12.47-14.41-17.7
		c-8.53-6.16-18.16-9.76-28.9-10.79c-10.74-1.03-21.09-1.02-31.04,0.02c-6.53,0.92-12.84,1.9-18.93,2.95
		c-6.1,1.06-12.39,2.53-18.88,4.41L836.65,166.89z"/>
</g>
<path class="st0" d="M506.06,114.89c-100.33,0-181.66,78.42-181.66,175.15c0,50.47,22.15,95.94,57.57,127.9
	c-31.39-30.48-50.79-72.45-50.79-118.8c0-93.12,78.29-168.61,174.87-168.61s174.87,75.49,174.87,168.61
	c0,46.35-19.4,88.32-50.79,118.8c35.42-31.96,57.57-77.44,57.57-127.9C687.71,193.31,606.38,114.89,506.06,114.89z"/>
<g>
	<g>
		<path d="M505.37,217.14c-40.57,0-73.46,32.89-73.46,73.46c0,40.57,32.89,73.46,73.46,73.46c40.57,0,73.46-32.89,73.46-73.46
			C578.83,250.03,545.94,217.14,505.37,217.14z M554.64,321.61c-0.03,0.04-0.05,0.07-0.08,0.1c-0.59,0.75-1.47,1.15-2.36,1.15
			c-0.55,0-1.12-0.15-1.61-0.47c-1.32-0.85-1.77-2.57-1.02-3.95c4.45-8.26,6.71-17.03,6.37-24.72c-0.06-1.45-0.19-2.99-0.36-4.6
			c-0.01-0.05-0.01-0.1-0.01-0.15c-0.4-6.78-2.3-13.59-5.51-19.67c-0.01-0.02-0.02-0.05-0.04-0.07c-2.46-5-5.63-9.29-9.4-12.76
			c-11.05-10.14-23.94-15.5-37.3-15.5c-6.91,0-14.17,1.57-20.99,4.54c-0.39,0.17-0.8,0.25-1.2,0.25c-1.09,0-2.14-0.6-2.67-1.63
			c-0.72-1.41-0.22-3.14,1.14-3.95c8.39-4.98,18.1-7.62,28.06-7.62c12.44,0,24.35,4,34.46,11.56
			C567.03,262.77,572.65,297.53,554.64,321.61z"/>
	</g>
</g>
<g>
	<path d="M83.51,524.43c3.35-1.42,6.61-3,9.77-4.74c3.16-1.74,6.41-3.45,9.77-5.13c0.77-0.39,1.9-0.9,3.39-1.55
		c1.48-0.64,2.9-1.06,4.26-1.26c1.35-0.19,2.38,0,3.09,0.58c0.71,0.58,0.8,1.9,0.29,3.97c-0.39,1.55-1.13,3.16-2.22,4.84
		c-1.1,1.68-2.03,3.35-2.8,5.03l-4.84,9.86c-0.52,0.77-0.97,1.55-1.35,2.32c-0.39,0.77-0.77,1.55-1.16,2.32
		c3.87-4.38,7.86-8.64,11.99-12.77c4.13-4.13,8.51-7.93,13.15-11.41c2.71-2.06,5.8-4.03,9.28-5.9c3.48-1.87,6.96-2.54,10.45-2.03
		c2.06,0.39,3.32,1.23,3.77,2.51c0.45,1.29,0.45,2.71,0,4.26c-0.45,1.55-1.13,3.09-2.03,4.64c-0.9,1.55-1.68,2.77-2.32,3.68
		l-8.12,10.25c2.83-0.64,5.61-1.42,8.32-2.32c2.71-0.9,5.48-1.93,8.32-3.1c0.51-0.26,1.38-0.74,2.61-1.45
		c1.22-0.71,2.48-1.35,3.77-1.93c1.29-0.58,2.42-0.84,3.39-0.77c0.97,0.07,1.45,0.74,1.45,2.03c0,0.9-0.55,1.74-1.64,2.51
		c-1.1,0.77-2.35,1.48-3.77,2.13c-1.42,0.65-2.84,1.23-4.26,1.74c-1.42,0.52-2.45,0.9-3.09,1.16c-0.77,0.39-2.68,1.1-5.71,2.13
		c-3.03,1.03-6.32,2.13-9.87,3.29c-3.55,1.16-6.9,2.22-10.06,3.19c-3.16,0.97-5.26,1.51-6.29,1.64c-0.9,0-1.58-0.36-2.03-1.06
		c-0.45-0.71-0.65-1.52-0.58-2.42c0.06-0.9,0.48-1.77,1.26-2.61c0.77-0.84,1.93-1.32,3.48-1.45c2.19,0,4.13-0.61,5.8-1.84
		c1.67-1.22,3.29-2.61,4.84-4.16c2.71-2.58,4.96-5.42,6.77-8.51c0.39-0.64,0.97-1.64,1.74-3c0.77-1.35,1.29-2.61,1.55-3.77
		c-2.06,0.13-4.1,0.65-6.09,1.55c-2,0.9-3.97,1.97-5.9,3.19c-1.93,1.23-3.77,2.55-5.51,3.97c-1.74,1.42-3.32,2.71-4.74,3.87
		c-4.13,3.22-8.03,6.71-11.7,10.45c-3.68,3.74-7.19,7.61-10.54,11.61l-5.42,6.19L81,583.04c-0.77,1.42-1.74,3.42-2.9,6
		c-1.16,2.58-2.48,5.09-3.97,7.54c-1.48,2.45-3.09,4.48-4.84,6.09c-1.74,1.61-3.64,2.22-5.71,1.84c-1.55-0.39-2.54-1.13-3-2.22
		c-0.45-1.1-0.51-2.39-0.19-3.87c0.32-1.48,0.87-3.03,1.64-4.64c0.77-1.61,1.61-3.19,2.51-4.74c0.9-1.55,1.74-2.9,2.51-4.06
		c0.77-1.16,1.35-2,1.74-2.51c3.35-5.03,6.9-9.96,10.64-14.8c3.74-4.84,7.48-9.58,11.22-14.22c2.84-5.8,5.48-11.54,7.93-17.22
		c2.45-5.67,4.84-11.41,7.16-17.22c-2.45,0.65-4.87,1.61-7.25,2.9c-2.39,1.29-4.61,2.39-6.67,3.29c-1.03,0.52-2.22,1.29-3.58,2.32
		c-1.35,1.03-2.68,1.42-3.97,1.16c-1.16,0-1.87-0.61-2.13-1.84C81.9,525.62,82.35,524.81,83.51,524.43z"/>
	<path d="M163.01,524.43c8.12-3.87,15.99-8.06,23.6-12.57c7.61-4.51,14.18-9.48,19.73-14.89l6.96-12.57
		c2.19-3.74,4.58-7.57,7.16-11.51c2.58-3.93,5.67-7.12,9.28-9.58c0.9-0.51,2.19-1.06,3.87-1.64c1.67-0.58,3.26-0.87,4.74-0.87
		c1.48,0,2.64,0.42,3.48,1.26c0.84,0.84,0.87,2.42,0.1,4.74c-0.65,1.81-1.58,3.52-2.8,5.13c-1.23,1.61-2.58,3.19-4.06,4.74
		c-1.48,1.55-3,3-4.55,4.35c-1.55,1.35-2.9,2.68-4.06,3.97c-2.71,2.58-5.48,5.16-8.32,7.74c-2.84,2.58-5.74,5.03-8.7,7.35
		c-0.77,1.42-1.52,2.8-2.22,4.16c-0.71,1.35-1.39,2.74-2.03,4.16c-1.16,2.19-2.32,4.39-3.48,6.58c-1.16,2.19-2.45,4.39-3.87,6.58
		c4-2.32,8.09-4.48,12.28-6.48c4.19-2,8.35-3.9,12.48-5.71c1.42-0.77,3.06-1.42,4.93-1.93c1.87-0.51,3.71-0.51,5.51,0
		c1.93,0.65,3.16,1.87,3.68,3.68c0.51,1.81,0.26,3.61-0.77,5.42c-0.77,1.55-1.77,3.09-3,4.64c-1.23,1.55-2.48,3.13-3.77,4.74
		c-1.29,1.61-2.39,3.29-3.29,5.03c-0.9,1.74-1.35,3.45-1.35,5.13c3.35-0.39,6.87-1.38,10.54-3c3.68-1.61,6.99-3.19,9.96-4.74
		c1.03-0.51,2.22-1.19,3.58-2.03c1.35-0.84,2.54-1.45,3.58-1.84c0.64-0.39,1.26-0.45,1.84-0.19c0.58,0.26,1.03,0.61,1.35,1.06
		c0.32,0.45,0.45,1,0.39,1.64c-0.07,0.65-0.48,1.16-1.26,1.55c-2.84,1.68-5.74,3.19-8.7,4.55c-2.97,1.35-5.87,2.87-8.7,4.55
		c-1.16,0.65-2.51,1.42-4.06,2.32c-1.55,0.9-3.13,1.61-4.74,2.13c-1.61,0.51-3.22,0.71-4.84,0.58c-1.61-0.13-3-0.9-4.16-2.32
		c-0.9-1.16-1.32-2.38-1.26-3.68c0.06-1.29,0.39-2.54,0.97-3.77c0.58-1.22,1.29-2.42,2.13-3.58c0.84-1.16,1.58-2.19,2.22-3.09
		c1.42-1.8,2.8-3.74,4.16-5.8c1.35-2.06,2.16-4.19,2.42-6.38c-1.03-0.13-2.16-0.06-3.39,0.19c-1.23,0.26-2.48,0.61-3.77,1.06
		c-1.29,0.45-2.55,0.94-3.77,1.45c-1.23,0.52-2.29,0.9-3.19,1.16c-2.84,1.29-5.58,2.68-8.22,4.16c-2.64,1.48-5.26,3.06-7.83,4.74
		c-4.13,2.97-7.03,5.19-8.7,6.67c-1.68,1.48-2.9,2.55-3.68,3.19c-0.65,0.65-1.39,1.1-2.22,1.35c-0.84,0.26-1.77,0-2.8-0.77
		c-1.03-0.9-1.48-1.77-1.35-2.61c0.13-0.84,0.51-1.64,1.16-2.42c3.74-3.87,7.19-7.99,10.35-12.38c3.16-4.38,6.03-8.9,8.61-13.54
		c-3.48,2.71-7,5.22-10.54,7.54c-3.55,2.32-7.13,4.58-10.74,6.77c-2.19,1.42-4.35,2.71-6.48,3.87c-2.13,1.16-4.29,2.32-6.48,3.48
		c-0.65,0.26-1.32,0.55-2.03,0.87c-0.71,0.32-1.39,0.23-2.03-0.29c-0.64-0.51-0.97-1.22-0.97-2.13
		C161.85,525.46,162.24,524.81,163.01,524.43z M224.33,480.52c1.67-1.67,3.39-3.48,5.13-5.42c1.74-1.93,3.19-4.06,4.35-6.38
		c-2.97,1.42-5.61,3.39-7.93,5.9c-2.32,2.51-4.39,5.06-6.19,7.64l-4.06,6.77c1.42-1.42,2.87-2.84,4.35-4.26
		C221.46,483.36,222.91,481.94,224.33,480.52z"/>
	<path d="M271.91,515.72c2.58-1.03,5.25-1.93,8.03-2.71c2.77-0.77,5.45-1.55,8.03-2.32c1.67-0.9,3.55-1.61,5.61-2.13
		c2.06-0.51,3.93-0.26,5.61,0.77c1.03,0.77,1.42,1.81,1.16,3.09c0.9-0.13,1.8,0.13,2.71,0.77c1.67,1.68,2.25,3.68,1.74,6
		c-0.52,2.32-1.48,4.58-2.9,6.77c0.51,0.65,1.29,1.29,2.32,1.93c2.06,1.29,4.32,1.87,6.77,1.74c2.45-0.13,4.77-0.51,6.96-1.16
		c0.64-0.13,1.61-0.51,2.9-1.16c1.29-0.64,2.61-1.26,3.97-1.84c1.35-0.58,2.61-0.97,3.77-1.16c1.16-0.19,1.93,0.1,2.32,0.87
		c0.51,1.03,0.45,1.9-0.19,2.61c-0.65,0.71-1.52,1.29-2.61,1.74c-1.1,0.45-2.22,0.87-3.39,1.26c-1.16,0.39-1.93,0.65-2.32,0.77
		c-1.93,0.65-3.97,1.16-6.09,1.55c-2.13,0.39-4.23,0.58-6.29,0.58c-2.06,0-4.06-0.29-6-0.87s-3.61-1.58-5.03-3l-4.26,4.45
		c-1.55,1.42-3.29,2.84-5.22,4.26c-1.93,1.42-3.97,2.61-6.09,3.58c-2.13,0.97-4.35,1.58-6.67,1.84c-2.32,0.26-4.52-0.07-6.58-0.97
		c-2.58-1.16-4.1-2.67-4.55-4.55c-0.45-1.87-0.29-3.84,0.48-5.9c0.77-2.06,1.87-4.06,3.29-6c1.42-1.93,2.77-3.55,4.06-4.84
		l3.68-3.68c-2.97,1.03-5.87,2.19-8.7,3.48c-2.84,1.29-5.68,2.65-8.51,4.06c-0.52,0.26-1.16,0.61-1.93,1.06
		c-0.77,0.45-1.55,0.87-2.32,1.26c-0.77,0.39-1.52,0.68-2.22,0.87c-0.71,0.19-1.32,0.1-1.84-0.29c-0.9-0.51-1.29-1.22-1.16-2.13
		c0.13-0.9,0.58-1.55,1.35-1.93L271.91,515.72z M278.49,522.49c-0.52,0.52-1.45,1.48-2.8,2.9c-1.35,1.42-2.55,2.9-3.58,4.45
		c-1.03,1.55-1.64,3-1.84,4.35c-0.19,1.35,0.61,2.16,2.42,2.42c3.35,0.52,6.54,0.39,9.57-0.39c3.03-0.77,5.77-2.25,8.22-4.45
		c1.03-1.03,2-2,2.9-2.9c0.9-0.9,1.67-1.93,2.32-3.09c-0.65-1.67-1-3.48-1.06-5.42c-0.07-1.93,0.42-3.61,1.45-5.03
		c-3.61,0.26-6.87,1.03-9.77,2.32C283.42,518.95,280.81,520.56,278.49,522.49z"/>
	<path d="M344.84,500.64c2.32,0.13,4.64,0.16,6.96,0.1c2.32-0.06,4.64-0.22,6.96-0.48c3.61-5.54,7.51-11.32,11.7-17.31
		c4.19-6,8.93-11.06,14.22-15.18c1.03-0.64,2.09-1.29,3.19-1.93c1.09-0.64,2.22-1.03,3.39-1.16c1.29,0,2.25,0.52,2.9,1.55
		c0.64,1.03,0.77,2.13,0.39,3.29c-0.65,2.58-2.06,5.06-4.26,7.45c-2.19,2.39-4.06,4.55-5.61,6.48c-1.93,2.58-3.97,5.1-6.09,7.54
		c-2.13,2.45-4.29,4.84-6.48,7.16l11.41-2.71l19.15-5.8c0.9-0.39,1.84-0.68,2.8-0.87c0.97-0.19,1.84,0.23,2.61,1.26
		c0.77,1.03,0.97,2.1,0.58,3.19c-0.39,1.1-1.1,1.84-2.13,2.22c-5.93,2.06-12.12,3.68-18.57,4.84c-6.45,1.16-12.77,2.13-18.96,2.9
		l-2.71,0.58c-1.55,1.42-3.16,2.84-4.84,4.26c-1.68,1.42-3.42,2.84-5.22,4.26c-0.9,1.29-1.68,2.61-2.32,3.97
		c-0.65,1.35-1.29,2.74-1.93,4.16c-0.26,0.39-0.65,1.35-1.16,2.9c-0.52,1.55-1,3.13-1.45,4.74c-0.45,1.61-0.81,3.09-1.06,4.45
		c-0.26,1.35-0.19,2.03,0.19,2.03c2.71,0.65,5.64,0.48,8.8-0.48c3.16-0.97,5.9-1.77,8.22-2.42c2.97-1.03,5.93-2.06,8.9-3.1
		c2.97-1.03,5.93-2.19,8.9-3.48c0.77-0.26,1.77-0.45,3-0.58c1.22-0.13,1.77,0.65,1.64,2.32c-0.13,1.16-0.94,1.97-2.42,2.42
		c-1.48,0.45-2.68,0.87-3.58,1.26l-13.73,5.03c-1.55,0.65-3.71,1.55-6.48,2.71c-2.77,1.16-5.55,2.1-8.32,2.81
		c-2.77,0.71-5.29,0.8-7.54,0.29c-2.26-0.51-3.64-2.25-4.16-5.22c-0.26-2.96,0.29-5.9,1.64-8.8c1.35-2.9,2.93-6.03,4.74-9.38
		c-5.93,4-12.12,7.54-18.57,10.64c-0.77,0.39-1.42,0.45-1.93,0.19c-0.51-0.26-0.9-0.64-1.16-1.16c-0.26-0.51-0.29-1.06-0.1-1.64
		c0.19-0.58,0.61-1.06,1.26-1.45c4.51-2.06,8.86-4.32,13.06-6.77c4.19-2.45,8.28-5.16,12.28-8.12l2.71-4.64
		c-1.93,0.13-4.06,0.39-6.38,0.77c-2.32,0.39-4.19,0.19-5.61-0.58c-1.03-0.64-1.39-1.55-1.06-2.71
		C342.93,501.22,343.68,500.64,344.84,500.64z M379.85,482.26c0.64-0.9,1.26-1.87,1.84-2.9c0.58-1.03,1.19-2.06,1.84-3.09
		c-1.29,1.29-2.48,2.58-3.58,3.87c-1.1,1.29-2.03,2.32-2.8,3.09c-2.32,2.58-4.58,5.19-6.77,7.83c-2.19,2.64-4.19,5.45-6,8.41
		C370.18,494.19,375.33,488.45,379.85,482.26z"/>
	<path d="M405.38,515.72c2.58-1.03,5.25-1.93,8.03-2.71c2.77-0.77,5.45-1.55,8.03-2.32c1.67-0.9,3.55-1.61,5.61-2.13
		c2.06-0.51,3.93-0.26,5.61,0.77c1.03,0.77,1.42,1.81,1.16,3.09c0.9-0.13,1.8,0.13,2.71,0.77c1.67,1.68,2.25,3.68,1.74,6
		c-0.52,2.32-1.48,4.58-2.9,6.77c0.51,0.65,1.29,1.29,2.32,1.93c2.06,1.29,4.32,1.87,6.77,1.74c2.45-0.13,4.77-0.51,6.96-1.16
		c0.64-0.13,1.61-0.51,2.9-1.16c1.29-0.64,2.61-1.26,3.97-1.84c1.35-0.58,2.61-0.97,3.77-1.16c1.16-0.19,1.93,0.1,2.32,0.87
		c0.51,1.03,0.45,1.9-0.19,2.61c-0.65,0.71-1.52,1.29-2.61,1.74c-1.1,0.45-2.22,0.87-3.39,1.26c-1.16,0.39-1.93,0.65-2.32,0.77
		c-1.93,0.65-3.97,1.16-6.09,1.55c-2.13,0.39-4.23,0.58-6.29,0.58c-2.06,0-4.06-0.29-6-0.87c-1.93-0.58-3.61-1.58-5.03-3l-4.26,4.45
		c-1.55,1.42-3.29,2.84-5.22,4.26c-1.93,1.42-3.97,2.61-6.09,3.58c-2.13,0.97-4.35,1.58-6.67,1.84c-2.32,0.26-4.52-0.07-6.58-0.97
		c-2.58-1.16-4.1-2.67-4.55-4.55c-0.45-1.87-0.29-3.84,0.48-5.9c0.77-2.06,1.87-4.06,3.29-6c1.42-1.93,2.77-3.55,4.06-4.84
		l3.68-3.68c-2.97,1.03-5.87,2.19-8.7,3.48c-2.84,1.29-5.68,2.65-8.51,4.06c-0.52,0.26-1.16,0.61-1.93,1.06
		c-0.77,0.45-1.55,0.87-2.32,1.26c-0.77,0.39-1.52,0.68-2.22,0.87c-0.71,0.19-1.32,0.1-1.84-0.29c-0.9-0.51-1.29-1.22-1.16-2.13
		c0.13-0.9,0.58-1.55,1.35-1.93L405.38,515.72z M411.96,522.49c-0.52,0.52-1.45,1.48-2.8,2.9c-1.35,1.42-2.55,2.9-3.58,4.45
		c-1.03,1.55-1.64,3-1.84,4.35c-0.19,1.35,0.61,2.16,2.42,2.42c3.35,0.52,6.54,0.39,9.58-0.39c3.03-0.77,5.77-2.25,8.22-4.45
		c1.03-1.03,2-2,2.9-2.9c0.9-0.9,1.67-1.93,2.32-3.09c-0.65-1.67-1-3.48-1.06-5.42c-0.07-1.93,0.42-3.61,1.45-5.03
		c-3.61,0.26-6.87,1.03-9.77,2.32C416.89,518.95,414.28,520.56,411.96,522.49z"/>
	<path d="M461.09,524.62c3.35-1.67,6.64-3.29,9.87-4.84c3.22-1.55,6.51-2.97,9.86-4.26c3.61-1.29,7.19-2.25,10.74-2.9
		c3.55-0.64,7.25-0.97,11.12-0.97c1.42,0,2.51,0.36,3.29,1.06c0.77,0.71,0.84,1.9,0.19,3.58c-0.77,1.29-1.93,1.93-3.48,1.93
		c-3.35-0.26-6.74-0.26-10.16,0c-3.42,0.26-6.67,1.03-9.77,2.32c-1.03,0.39-2.13,0.97-3.29,1.74s-2.22,1.64-3.19,2.61
		c-0.97,0.97-1.64,2.03-2.03,3.19c-0.39,1.16-0.26,2.39,0.39,3.68c1.03,2.19,3,3.48,5.9,3.87c2.9,0.39,5.38,0.32,7.45-0.19
		c1.67-0.39,3.16-0.9,4.45-1.55c1.29-0.64,2.45-1.22,3.48-1.74c1.03-0.51,1.96-0.87,2.8-1.06c0.84-0.19,1.71,0.1,2.61,0.87
		c0.9,1.29,0.93,2.77,0.1,4.45c-0.84,1.68-1.52,3.09-2.03,4.26l-2.71,6.38c3.48-3.61,7.16-7.06,11.03-10.35
		c3.87-3.29,7.99-6.22,12.38-8.8c0.39-0.26,0.9-0.64,1.55-1.16c0.64-0.51,1.35-1,2.13-1.45c0.77-0.45,1.55-0.77,2.32-0.97
		c0.77-0.19,1.42-0.1,1.93,0.29c0.9,0.65,1.22,1.29,0.97,1.93c-0.26,0.65-0.71,1.29-1.35,1.93c-3.35,1.81-6.58,3.74-9.67,5.8
		c-3.09,2.06-6.13,4.39-9.09,6.96c-3.35,2.83-6.55,5.87-9.58,9.09c-3.03,3.22-5.84,6.58-8.41,10.06l-5.03,11.61
		c-1.55,3.87-3.09,7.8-4.64,11.8c-1.55,4-3.22,7.93-5.03,11.8c-0.39,0.77-0.87,1.71-1.45,2.8c-0.58,1.09-1.23,2.13-1.93,3.1
		c-0.71,0.97-1.55,1.74-2.51,2.32c-0.97,0.58-2.03,0.8-3.19,0.68c-1.55-0.26-2.55-0.97-3-2.13c-0.45-1.16-0.58-2.45-0.39-3.87
		c0.19-1.42,0.51-2.84,0.97-4.26c0.45-1.42,0.87-2.58,1.26-3.48c2.45-5.8,5.51-11.45,9.19-16.93c3.68-5.48,7.57-10.67,11.7-15.57
		l6.58-18.76c-2.32,0.65-4.81,1.13-7.45,1.45c-2.64,0.32-5.13,0.35-7.45,0.1c-2.32-0.26-4.42-0.9-6.29-1.93
		c-1.87-1.03-3.26-2.71-4.16-5.03c-1.16-2.96-1.1-5.67,0.19-8.12c-1.03,0.65-2.1,1.32-3.19,2.03c-1.1,0.71-2.03,0.94-2.8,0.68
		c-1.29,0-2.06-0.55-2.32-1.64C459.67,525.95,460.06,525.14,461.09,524.62z"/>
	<path d="M525.12,524.43c2.71-1.42,5.38-2.84,8.03-4.26c2.64-1.42,5.51-3.03,8.61-4.84c-0.26-2.45,0.48-4.77,2.22-6.96
		c1.74-2.19,3.97-3.22,6.67-3.09c1.8,0.26,2.97,1.16,3.48,2.71c0.51,1.55,0.26,3.03-0.77,4.45c-1.03,1.55-2.39,2.84-4.06,3.87
		c0.9,0.52,2,0.77,3.29,0.77c2.71,0.26,5.54-0.22,8.51-1.45c2.96-1.22,5.61-2.54,7.93-3.97c2.32-0.77,3.8-0.51,4.45,0.77
		c0.64,1.29,0.39,2.84-0.77,4.64c-0.65,1.03-1.39,2.35-2.22,3.97c-0.84,1.61-1.55,3.26-2.13,4.93c-0.58,1.68-0.9,3.29-0.97,4.84
		c-0.07,1.55,0.42,2.77,1.45,3.68c0.64,0.77,2.35,0.77,5.13,0c2.77-0.77,6.48-2.06,11.12-3.87c1.55-0.64,3.13-1.38,4.74-2.22
		c1.61-0.84,3.25-1.64,4.93-2.42c0.39-0.13,0.97-0.42,1.74-0.87c0.77-0.45,1.51-0.77,2.22-0.97c0.71-0.19,1.35-0.19,1.93,0
		c0.58,0.19,0.87,0.87,0.87,2.03c0,0.65-0.29,1.23-0.87,1.74c-0.58,0.52-1.23,0.97-1.93,1.35c-0.71,0.39-1.45,0.71-2.22,0.97
		c-0.77,0.26-1.35,0.45-1.74,0.58l-8.12,3.68c-1.42,0.77-3.19,1.74-5.32,2.9c-2.13,1.16-4.29,2.13-6.48,2.9
		c-2.19,0.77-4.32,1.16-6.38,1.16c-2.06,0-3.68-0.84-4.84-2.51c-0.65-0.9-1.03-1.9-1.16-3c-0.13-1.09-0.1-2.19,0.1-3.29
		c0.19-1.09,0.45-2.19,0.77-3.29c0.32-1.09,0.61-2.16,0.87-3.19l1.55-6.38c-0.65,0.13-1.97,0.45-3.97,0.97
		c-2,0.52-4.16,0.87-6.48,1.06c-2.32,0.19-4.55,0.16-6.67-0.1c-2.13-0.26-3.71-1.09-4.74-2.51c-2.19,1.16-4,2.13-5.42,2.9
		c-1.42,0.77-2.87,1.61-4.35,2.51c-1.48,0.9-2.68,1.61-3.58,2.13c-0.77,0.26-1.68,0.74-2.71,1.45c-1.03,0.71-1.93,0.81-2.71,0.29
		c-0.77-0.51-1.16-1.22-1.16-2.13C523.95,525.46,524.34,524.81,525.12,524.43z"/>
	<path d="M598.04,524.62c1.55-0.77,3.51-1.77,5.9-3c2.38-1.22,4.93-2.42,7.64-3.58c2.71-1.16,5.32-2.25,7.83-3.29
		c2.51-1.03,4.61-1.87,6.29-2.51c0.9-0.39,2.51-0.97,4.84-1.74c2.32-0.77,4.77-1.48,7.35-2.13c2.58-0.64,5-1.09,7.25-1.35
		c2.25-0.26,3.9-0.06,4.93,0.58c1.55,1.42,1.84,2.71,0.87,3.87c-0.97,1.16-2.16,1.87-3.58,2.13l-8.7,0.97
		c-1.81,0.52-3.32,1.13-4.55,1.84c-1.23,0.71-2.61,1.58-4.16,2.61c-0.65,0.52-1.77,1.58-3.39,3.19c-1.61,1.61-3.19,3.35-4.74,5.22
		c-1.55,1.87-2.77,3.68-3.68,5.42c-0.9,1.74-0.9,3,0,3.77c0.77,0.65,2.03,0.77,3.77,0.39c1.74-0.39,3.51-0.97,5.32-1.74
		c1.8-0.77,3.48-1.58,5.03-2.42c1.55-0.84,2.58-1.45,3.1-1.84c3.74-2.32,6.77-4.77,9.09-7.35c1.16-1.29,2.42-1.45,3.77-0.48
		c1.35,0.97,1.77,2.29,1.26,3.97c-0.26,0.9-0.71,1.68-1.35,2.32c-0.65,0.65-1.26,1.26-1.84,1.84s-1.06,1.39-1.45,2.42
		c-0.52,0.9-0.65,1.58-0.39,2.03c0.26,0.45,0.71,0.74,1.35,0.87c1.8,0.26,4.06,0.13,6.77-0.39c2.71-0.51,5.51-1.22,8.41-2.13
		c2.9-0.9,5.77-1.96,8.61-3.19c2.83-1.22,5.29-2.35,7.35-3.39c0.51-0.13,1.22-0.48,2.13-1.06c0.9-0.58,1.84-1.06,2.8-1.45
		c0.97-0.39,1.9-0.58,2.81-0.58c0.9,0,1.55,0.39,1.93,1.16c0.51,0.77,0.48,1.48-0.1,2.13c-0.58,0.65-1.39,1.19-2.42,1.64
		c-1.03,0.45-2.06,0.87-3.1,1.26c-1.03,0.39-1.81,0.71-2.32,0.97c-2.19,1.03-4.39,2.03-6.58,3c-2.19,0.97-4.45,1.97-6.77,3
		c-1.55,0.65-3.22,1.42-5.03,2.32c-1.81,0.9-3.68,1.67-5.61,2.32c-1.93,0.64-3.9,1.09-5.9,1.35c-2,0.26-3.84,0.06-5.51-0.58
		c-2.19-0.9-3.48-2.16-3.87-3.77c-0.39-1.61-0.32-3.32,0.19-5.13l-5.22,3.09c-2.19,1.29-4.48,2.61-6.87,3.97
		c-2.39,1.35-4.87,2.16-7.45,2.42c-2.32,0.13-4.39-0.39-6.19-1.55c-1.81-1.16-2.77-2.96-2.9-5.42c0-1.29,0.51-2.93,1.55-4.93
		c1.03-2,2.35-4.06,3.97-6.19c1.61-2.13,3.39-4.09,5.32-5.9c1.93-1.8,3.74-3.16,5.42-4.06c-0.9,0.26-2.35,0.84-4.35,1.74
		c-2,0.9-4.26,2-6.77,3.29c-2.51,1.29-5.16,2.61-7.93,3.97c-2.77,1.35-5.32,2.61-7.64,3.77c-0.65,0.39-1.29,0.48-1.93,0.29
		c-0.64-0.19-1.13-0.51-1.45-0.97c-0.32-0.45-0.45-0.97-0.39-1.55C596.85,525.49,597.26,525.01,598.04,524.62z"/>
	<path d="M683.34,524.43c3.35-1.42,6.61-3,9.77-4.74c3.16-1.74,6.41-3.45,9.77-5.13c0.77-0.39,1.9-0.9,3.39-1.55
		c1.48-0.64,2.9-1.06,4.26-1.26c1.35-0.19,2.38,0,3.09,0.58c0.71,0.58,0.8,1.9,0.29,3.97c-0.39,1.55-1.13,3.16-2.22,4.84
		c-1.1,1.68-2.03,3.35-2.81,5.03l-4.84,9.86c-0.52,0.77-0.97,1.55-1.35,2.32c-0.39,0.77-0.77,1.55-1.16,2.32
		c3.87-4.38,7.86-8.64,11.99-12.77c4.13-4.13,8.51-7.93,13.15-11.41c2.71-2.06,5.8-4.03,9.28-5.9c3.48-1.87,6.96-2.54,10.45-2.03
		c2.06,0.39,3.32,1.23,3.77,2.51c0.45,1.29,0.45,2.71,0,4.26c-0.45,1.55-1.13,3.09-2.03,4.64c-0.9,1.55-1.68,2.77-2.32,3.68
		l-8.12,10.25c2.83-0.64,5.61-1.42,8.32-2.32c2.71-0.9,5.48-1.93,8.32-3.1c0.51-0.26,1.38-0.74,2.61-1.45
		c1.22-0.71,2.48-1.35,3.77-1.93c1.29-0.58,2.42-0.84,3.39-0.77c0.97,0.07,1.45,0.74,1.45,2.03c0,0.9-0.55,1.74-1.64,2.51
		c-1.1,0.77-2.35,1.48-3.77,2.13c-1.42,0.65-2.84,1.23-4.26,1.74c-1.42,0.52-2.45,0.9-3.1,1.16c-0.77,0.39-2.68,1.1-5.71,2.13
		c-3.03,1.03-6.32,2.13-9.87,3.29c-3.55,1.16-6.9,2.22-10.06,3.19c-3.16,0.97-5.26,1.51-6.29,1.64c-0.9,0-1.58-0.36-2.03-1.06
		c-0.45-0.71-0.65-1.52-0.58-2.42c0.06-0.9,0.48-1.77,1.26-2.61c0.77-0.84,1.93-1.32,3.48-1.45c2.19,0,4.13-0.61,5.8-1.84
		c1.67-1.22,3.29-2.61,4.84-4.16c2.71-2.58,4.96-5.42,6.77-8.51c0.39-0.64,0.97-1.64,1.74-3c0.77-1.35,1.29-2.61,1.55-3.77
		c-2.06,0.13-4.1,0.65-6.09,1.55c-2,0.9-3.97,1.97-5.9,3.19c-1.93,1.23-3.77,2.55-5.51,3.97c-1.74,1.42-3.32,2.71-4.74,3.87
		c-4.13,3.22-8.03,6.71-11.7,10.45s-7.19,7.61-10.54,11.61l-5.42,6.19l-12.96,26.89c-0.77,1.42-1.74,3.42-2.9,6
		c-1.16,2.58-2.48,5.09-3.97,7.54c-1.48,2.45-3.09,4.48-4.84,6.09c-1.74,1.61-3.64,2.22-5.71,1.84c-1.55-0.39-2.54-1.13-3-2.22
		c-0.45-1.1-0.51-2.39-0.19-3.87c0.32-1.48,0.87-3.03,1.64-4.64c0.77-1.61,1.61-3.19,2.51-4.74c0.9-1.55,1.74-2.9,2.51-4.06
		c0.77-1.16,1.35-2,1.74-2.51c3.35-5.03,6.9-9.96,10.64-14.8c3.74-4.84,7.48-9.58,11.22-14.22c2.83-5.8,5.48-11.54,7.93-17.22
		c2.45-5.67,4.84-11.41,7.16-17.22c-2.45,0.65-4.87,1.61-7.25,2.9c-2.39,1.29-4.61,2.39-6.67,3.29c-1.03,0.52-2.22,1.29-3.58,2.32
		c-1.35,1.03-2.68,1.42-3.97,1.16c-1.16,0-1.87-0.61-2.13-1.84C681.73,525.62,682.18,524.81,683.34,524.43z"/>
	<path d="M762.84,524.43c8.12-3.87,15.99-8.06,23.6-12.57c7.61-4.51,14.18-9.48,19.73-14.89l6.96-12.57
		c2.19-3.74,4.58-7.57,7.16-11.51c2.58-3.93,5.67-7.12,9.28-9.58c0.9-0.51,2.19-1.06,3.87-1.64c1.67-0.58,3.26-0.87,4.74-0.87
		c1.48,0,2.64,0.42,3.48,1.26c0.84,0.84,0.87,2.42,0.1,4.74c-0.65,1.81-1.58,3.52-2.8,5.13c-1.23,1.61-2.58,3.19-4.06,4.74
		c-1.48,1.55-3,3-4.55,4.35c-1.55,1.35-2.9,2.68-4.06,3.97c-2.71,2.58-5.48,5.16-8.32,7.74c-2.84,2.58-5.74,5.03-8.7,7.35
		c-0.77,1.42-1.52,2.8-2.22,4.16c-0.71,1.35-1.39,2.74-2.03,4.16c-1.16,2.19-2.32,4.39-3.48,6.58c-1.16,2.19-2.45,4.39-3.87,6.58
		c4-2.32,8.09-4.48,12.28-6.48c4.19-2,8.35-3.9,12.48-5.71c1.42-0.77,3.06-1.42,4.93-1.93c1.87-0.51,3.71-0.51,5.51,0
		c1.93,0.65,3.16,1.87,3.68,3.68c0.51,1.81,0.26,3.61-0.77,5.42c-0.77,1.55-1.77,3.09-3,4.64c-1.23,1.55-2.48,3.13-3.77,4.74
		c-1.29,1.61-2.39,3.29-3.29,5.03c-0.9,1.74-1.35,3.45-1.35,5.13c3.35-0.39,6.87-1.38,10.54-3c3.68-1.61,6.99-3.19,9.96-4.74
		c1.03-0.51,2.22-1.19,3.58-2.03c1.35-0.84,2.54-1.45,3.58-1.84c0.64-0.39,1.26-0.45,1.84-0.19c0.58,0.26,1.03,0.61,1.35,1.06
		c0.32,0.45,0.45,1,0.39,1.64c-0.07,0.65-0.48,1.16-1.26,1.55c-2.84,1.68-5.74,3.19-8.7,4.55c-2.97,1.35-5.87,2.87-8.7,4.55
		c-1.16,0.65-2.51,1.42-4.06,2.32c-1.55,0.9-3.13,1.61-4.74,2.13c-1.61,0.51-3.22,0.71-4.84,0.58c-1.61-0.13-3-0.9-4.16-2.32
		c-0.9-1.16-1.32-2.38-1.26-3.68c0.06-1.29,0.39-2.54,0.97-3.77c0.58-1.22,1.29-2.42,2.13-3.58c0.84-1.16,1.58-2.19,2.22-3.09
		c1.42-1.8,2.8-3.74,4.16-5.8c1.35-2.06,2.16-4.19,2.42-6.38c-1.03-0.13-2.16-0.06-3.39,0.19c-1.23,0.26-2.48,0.61-3.77,1.06
		c-1.29,0.45-2.55,0.94-3.77,1.45c-1.23,0.52-2.29,0.9-3.19,1.16c-2.84,1.29-5.58,2.68-8.22,4.16c-2.65,1.48-5.26,3.06-7.83,4.74
		c-4.13,2.97-7.03,5.19-8.7,6.67c-1.68,1.48-2.9,2.55-3.68,3.19c-0.65,0.65-1.39,1.1-2.22,1.35c-0.84,0.26-1.77,0-2.8-0.77
		c-1.03-0.9-1.48-1.77-1.35-2.61c0.13-0.84,0.51-1.64,1.16-2.42c3.74-3.87,7.19-7.99,10.35-12.38c3.16-4.38,6.03-8.9,8.61-13.54
		c-3.48,2.71-7,5.22-10.54,7.54c-3.55,2.32-7.13,4.58-10.74,6.77c-2.19,1.42-4.35,2.71-6.48,3.87c-2.13,1.16-4.29,2.32-6.48,3.48
		c-0.65,0.26-1.32,0.55-2.03,0.87c-0.71,0.32-1.39,0.23-2.03-0.29c-0.64-0.51-0.97-1.22-0.97-2.13
		C761.68,525.46,762.07,524.81,762.84,524.43z M824.16,480.52c1.67-1.67,3.39-3.48,5.13-5.42s3.19-4.06,4.35-6.38
		c-2.97,1.42-5.61,3.39-7.93,5.9c-2.32,2.51-4.39,5.06-6.19,7.64l-4.06,6.77c1.42-1.42,2.87-2.84,4.35-4.26
		C821.29,483.36,822.74,481.94,824.16,480.52z"/>
	<path d="M851.24,524.62c7.61-3.74,15.02-7.54,22.24-11.41c2.06-1.03,4.38-2.45,6.96-4.26c2.58-1.8,5.03-2.97,7.35-3.48
		c1.42-0.26,2.58,0.26,3.48,1.55c0.9,1.29,0.84,2.58-0.19,3.87c-0.65,1.16-1.58,2.22-2.8,3.19c-1.23,0.97-2.29,1.97-3.19,3
		c-2.58,3.09-4.71,6.38-6.38,9.86c-0.39,0.65-0.77,1.42-1.16,2.32c-0.39,0.9-0.71,1.84-0.97,2.8c-0.26,0.97-0.39,1.84-0.39,2.61
		c0,0.77,0.26,1.35,0.77,1.74c0.39,0.39,1.22,0.29,2.51-0.29c1.29-0.58,2.71-1.29,4.26-2.13c1.55-0.84,2.97-1.67,4.26-2.51
		c1.29-0.84,2.06-1.38,2.32-1.64c2.71-1.8,5.25-3.68,7.64-5.61c2.38-1.93,4.67-4,6.87-6.19c0.51-0.51,1.22-0.97,2.13-1.35
		c0.9-0.39,1.74-0.51,2.51-0.39c0.77,0.13,1.38,0.48,1.84,1.06c0.45,0.58,0.61,1.45,0.48,2.61c-0.39,1.42-1.1,2.87-2.13,4.35
		c-1.03,1.48-1.87,2.8-2.51,3.97c-1.03,1.42-1.93,2.84-2.71,4.26c-0.77,1.42-1.61,2.84-2.51,4.26l-15.09,27.47
		c4.38-5.8,9.22-11.22,14.51-16.25c0.51-0.52,1.67-1.61,3.48-3.29c1.8-1.68,3.87-3.55,6.19-5.61c2.32-2.06,4.8-4.16,7.45-6.29
		c2.64-2.13,5.16-3.97,7.54-5.51c2.38-1.55,4.42-2.64,6.09-3.29c1.67-0.64,2.77-0.51,3.29,0.39c0.39,0.77,0.03,1.71-1.06,2.8
		c-1.1,1.1-2.45,2.19-4.06,3.29c-1.61,1.1-3.26,2.1-4.93,3c-1.68,0.9-2.77,1.55-3.29,1.93c-2.97,2.19-5.84,4.48-8.61,6.87
		c-2.77,2.38-5.45,4.93-8.03,7.64c-5.03,5.03-9.77,10.48-14.22,16.35c-4.45,5.87-8.61,11.9-12.48,18.09
		c-1.42,2.58-2.84,5.16-4.26,7.74c-1.42,2.58-2.77,5.16-4.06,7.74c-0.52,0.77-0.97,1.61-1.35,2.51c-0.39,0.9-0.9,1.67-1.55,2.32
		c-1.03,0.64-2.13,0.77-3.29,0.39c-1.16-0.39-1.87-1.16-2.13-2.32c-0.39-1.03-0.29-1.97,0.29-2.8c0.58-0.84,1.13-1.64,1.64-2.42
		c1.8-3.22,3.58-6.38,5.32-9.48c1.74-3.09,3.51-6.32,5.32-9.67c3.61-6.58,7.12-13.09,10.54-19.54c3.42-6.45,6.8-13.09,10.16-19.92
		c0.77-1.8,1.61-3.58,2.51-5.32c0.9-1.74,1.74-3.51,2.51-5.32l-8.12,6.19c-1.16,1.03-2.45,2.16-3.87,3.39
		c-1.42,1.23-2.9,2.32-4.45,3.29c-1.55,0.97-3.13,1.64-4.74,2.03c-1.61,0.39-3.19,0.19-4.74-0.58c-2.19-0.77-3.45-2.13-3.77-4.06
		c-0.32-1.93-0.13-4.16,0.58-6.67c0.71-2.51,1.8-5.13,3.29-7.83c1.48-2.71,3-5.29,4.55-7.74l-9.67,4.06
		c-2.19,1.03-4.39,2.1-6.58,3.19c-2.19,1.1-4.39,2.22-6.58,3.39c-0.77,0.52-1.61,1.03-2.51,1.55c-0.9,0.52-1.87,0.52-2.9,0
		c-0.77-0.51-1.13-1.22-1.06-2.13C849.85,525.46,850.34,524.88,851.24,524.62z"/>
</g>
<ellipse cx="506.26" cy="450.22" rx="233.99" ry="7.13"/>
</svg>
